<svg width="20" height="23" viewBox="0 0 20 23" fill="none" xmlns="http://www.w3.org/2000/svg">
<path d="M12.1924 18.4719V20.939L10.016 22.2031L7.90146 20.939V18.4719L10.016 19.736L12.1924 18.4719ZM0.546951 9.93899L2.6615 11.2031V15.4339L6.30265 17.585V20.0521L0.546951 16.698V9.93899ZM19.4851 9.93899V16.7082L13.6675 20.0623V17.5952L17.3086 15.4441V11.2031L19.4851 9.93899ZM13.6572 6.58496L15.8336 7.84909V10.3162L12.1924 12.4673V16.7694L10.0779 18.0335L7.96335 16.7694V12.4673L4.1881 10.3162V7.84909L6.36454 6.58496L10.0057 8.73602L13.6572 6.58496ZM4.19842 12.0901L6.31297 13.3542V15.8213L4.19842 14.5572V12.0901ZM15.8336 12.0901V14.5572L13.719 15.8213V13.3542L15.8336 12.0901ZM2.6615 4.43389L4.83794 5.69803L2.6615 6.96216V9.42926L0.546951 8.16513V5.69803L2.6615 4.43389ZM17.3705 4.43389L19.547 5.69803V8.16513L17.3705 9.42926V6.96216L15.256 5.69803L17.3705 4.43389ZM10.016 4.43389L12.1924 5.69803L10.016 6.97235L7.90146 5.70822L10.016 4.43389ZM10.016 0.203125L15.8336 3.55716L13.719 4.82129L10.0779 2.67022L6.36454 4.82129L4.26031 3.55716L10.016 0.203125Z" fill="#EA3498"/>
</svg>
