<?xml version="1.0" standalone="no"?>
<!DOCTYPE svg PUBLIC "-//W3C//DTD SVG 20010904//EN"
 "http://www.w3.org/TR/2001/REC-SVG-20010904/DTD/svg10.dtd">
<svg version="1.0" xmlns="http://www.w3.org/2000/svg"
 width="86.000000pt" height="63.000000pt" viewBox="0 0 86.000000 63.000000"
 preserveAspectRatio="xMidYMid meet">

<g transform="translate(0.000000,63.000000) scale(0.100000,-0.100000)"
fill="#000000" stroke="none">
<path d="M535 490 c-243 -186 -275 -212 -275 -224 0 -26 160 -226 181 -226 16
0 373 280 377 296 5 19 -158 224 -177 223 -9 0 -56 -31 -106 -69z m204 -132
c-37 -29 -59 -40 -59 -29 0 14 63 61 73 54 6 -3 -1 -14 -14 -25z m-90 -70
c-37 -29 -59 -40 -59 -29 0 14 63 61 73 54 6 -3 -1 -14 -14 -25z m-90 -70
c-37 -29 -59 -40 -59 -29 0 14 63 61 73 54 6 -3 -1 -14 -14 -25z m-101 -79
c-35 -30 -48 -35 -48 -20 0 15 61 62 72 55 5 -3 -5 -19 -24 -35z"/>
</g>
</svg>
