<svg width="11" height="13" viewBox="0 0 11 13" fill="none" xmlns="http://www.w3.org/2000/svg">
<path d="M4.37503 10.0715C3.20352 10.0715 2.25 9.1682 2.25 8.05835V3.20312H1.37503C0.616516 3.20312 0 3.78711 0 4.5057V10.9005C0 11.6191 0.616516 12.2031 1.37503 12.2031H7.62497C8.38348 12.2031 9 11.6191 9 10.9005V10.0715H4.37503Z" fill="#1A224B"/>
<path d="M11 1.57816C11 0.818634 10.3845 0.203125 9.62506 0.203125H4.37504C3.61551 0.203125 3 0.818634 3 1.57816V7.82809C3 8.58762 3.61551 9.20312 4.37504 9.20312H9.62506C10.3845 9.20312 11 8.58762 11 7.82809V1.57816Z" fill="#1A224B"/>
</svg>
