<svg width="23" height="44" viewBox="0 0 23 44" fill="none" xmlns="http://www.w3.org/2000/svg">
<path fill-rule="evenodd" clip-rule="evenodd" d="M17.6734 19.7362C15.9315 18.8037 14.0796 18.0933 12.2461 17.3561C11.1826 16.9299 10.165 16.4325 9.26656 15.7398C7.49719 14.3721 7.83639 12.1519 9.9083 11.2727C10.495 11.024 11.1093 10.9441 11.7327 10.9086C14.1346 10.7843 16.4174 11.2105 18.5901 12.223C19.6719 12.7292 20.0295 12.5693 20.3962 11.477C20.7812 10.3224 21.1021 9.15016 21.4596 7.98676C21.698 7.20524 21.4046 6.69015 20.6437 6.36155C19.2502 5.76653 17.8201 5.34025 16.3165 5.10934C14.3546 4.81627 14.3546 4.80739 14.3455 2.89799C14.3363 0.207072 14.3363 0.207072 11.5493 0.207072C11.1459 0.207072 10.7426 0.198191 10.3392 0.207072C9.03736 0.242596 8.81734 0.464619 8.78067 1.73459C8.76233 2.30297 8.78067 2.87135 8.7715 3.44861C8.76233 5.13599 8.75317 5.10934 7.08464 5.69548C3.05084 7.11643 0.557216 9.78071 0.291352 14.0436C0.0529908 17.8179 2.08823 20.3668 5.28776 22.2229C7.25883 23.3685 9.44075 24.0435 11.531 24.9404C12.3469 25.2868 13.1262 25.6864 13.8046 26.2371C15.8123 27.8445 15.4456 30.5177 13.062 31.5301C11.7877 32.0718 10.44 32.205 9.0557 32.0363C6.91962 31.7788 4.87522 31.237 2.94999 30.269C1.82236 29.7006 1.49232 29.8516 1.10728 31.0328C0.777241 32.0541 0.483874 33.0843 0.190507 34.1144C-0.203706 35.4999 -0.0570219 35.8285 1.30897 36.4768C3.05084 37.2938 4.91189 37.7112 6.80961 38.0043C8.29478 38.2352 8.34062 38.2974 8.35895 39.7894C8.36812 40.4643 8.36812 41.1481 8.37729 41.8231C8.38646 42.6757 8.80817 43.173 9.71578 43.1907C10.7426 43.2085 11.7785 43.2085 12.8053 43.1819C13.6487 43.1641 14.0796 42.7201 14.0796 41.8941C14.0796 40.9705 14.1255 40.038 14.0888 39.1144C14.0429 38.173 14.4647 37.6935 15.3998 37.4448C17.5542 36.8764 19.3877 35.7574 20.7996 34.0878C24.7233 29.4697 23.229 22.7113 17.6734 19.7362Z" fill="#424B5F"/>
</svg>
