<svg width="325" height="161" viewBox="0 0 325 161" fill="none" xmlns="http://www.w3.org/2000/svg">
<path d="M0 6.4C0 4.15979 0 3.03969 0.435974 2.18404C0.819467 1.43139 1.43139 0.819467 2.18404 0.435974C3.03969 0 4.15979 0 6.4 0H318.6C320.84 0 321.96 0 322.816 0.435974C323.569 0.819467 324.181 1.43139 324.564 2.18404C325 3.03969 325 4.15979 325 6.4V154.6C325 156.84 325 157.96 324.564 158.816C324.181 159.569 323.569 160.181 322.816 160.564C321.96 161 320.84 161 318.6 161H6.4C4.15979 161 3.03969 161 2.18404 160.564C1.43139 160.181 0.819467 159.569 0.435974 158.816C0 157.96 0 156.84 0 154.6V6.4Z" fill="url(#paint0_linear_39_568)"/>
<defs>
<linearGradient id="paint0_linear_39_568" x1="40.3671" y1="0" x2="40.3671" y2="157.235" gradientUnits="userSpaceOnUse">
<stop stop-color="#1A224B" stop-opacity="0.01"/>
<stop offset="1" stop-color="#130F24"/>
</linearGradient>
</defs>
</svg>
