<svg width="18" height="19" viewBox="0 0 18 19" fill="none" xmlns="http://www.w3.org/2000/svg">
<path d="M16.9021 13.4523L14.3848 11.5595C15.0141 10.478 15.2838 9.21614 15.2838 7.86419C15.2838 3.62807 11.8674 0.203125 7.6419 0.203125C3.41638 0.203125 0 3.62807 0 7.86416C0 12.1002 3.41638 15.5252 7.6419 15.5252C8.99047 15.5252 10.1592 15.1647 11.328 14.6239L13.216 17.1476C14.205 18.4094 16.0929 18.5896 17.2617 17.418C18.3406 16.3364 18.2507 14.4437 16.9021 13.4523ZM7.6419 13.7227C4.40533 13.7227 1.79809 11.1089 1.79809 7.86419C1.79809 4.6195 4.40533 2.00573 7.6419 2.00573C10.8785 2.00573 13.4857 4.6195 13.4857 7.86416C13.4857 11.1088 10.8785 13.7227 7.6419 13.7227Z" fill="white"/>
</svg>
