<svg width="13" height="14" viewBox="0 0 13 14" fill="none" xmlns="http://www.w3.org/2000/svg">
<path d="M12.8833 4.13207L9.27219 0.332176C9.15439 0.208378 8.97383 0.169517 8.81667 0.233632C8.65889 0.298366 8.55554 0.45319 8.55554 0.625434V2.45508H8.41668C5.43002 2.45508 3 4.91742 3 7.94381V8.78823C3 8.98408 3.13611 9.14736 3.3244 9.19189C3.35502 9.19972 3.38554 9.20312 3.41606 9.20312C3.57333 9.20312 3.72388 9.10963 3.79661 8.96275C4.57776 7.37915 6.1483 6.39567 7.89554 6.39567H8.55554V8.22522C8.55554 8.39756 8.65889 8.55239 8.81667 8.6165C8.97281 8.68124 9.15439 8.64186 9.27219 8.51796L12.8833 4.71807C13.0389 4.55428 13.0389 4.29648 12.8833 4.13207Z" fill="#1A224B"/>
<path d="M11.375 13.2031H1.625C0.729088 13.2031 0 12.4629 0 11.5531V3.85314C0 2.94343 0.729088 2.20312 1.625 2.20312H3.25C3.54953 2.20312 3.79163 2.44895 3.79163 2.75309C3.79163 3.05723 3.54953 3.30306 3.25 3.30306H1.625C1.32597 3.30306 1.08327 3.5495 1.08327 3.85314V11.5531C1.08327 11.8568 1.32597 12.1032 1.625 12.1032H11.375C11.6739 12.1032 11.9166 11.8568 11.9166 11.5531V7.15316C11.9166 6.84902 12.1587 6.60309 12.4583 6.60309C12.7579 6.60309 13 6.84902 13 7.15316V11.5531C13 12.4629 12.2709 13.2031 11.375 13.2031Z" fill="#1A224B"/>
</svg>
