<svg width="19" height="17" viewBox="0 0 19 17" fill="none" xmlns="http://www.w3.org/2000/svg">
<path fill-rule="evenodd" clip-rule="evenodd" d="M9.49946 4.30785C9.49946 6.40551 7.84111 8.93938 5.78211 8.93938C3.72312 8.93938 2.06477 6.40551 2.06477 4.30785C2.06477 2.21861 3.73221 0.518417 5.78211 0.518417C7.83203 0.518417 9.49946 2.21861 9.49946 4.30785ZM17.7605 4.72893C17.7605 6.63586 16.2868 8.93941 14.4562 8.93941C12.6256 8.93941 11.1519 6.63586 11.1519 4.72893C11.1519 2.87169 12.6343 1.36054 14.4562 1.36054C16.2781 1.36054 17.7605 2.87169 17.7605 4.72893ZM17.8692 10.7232C17.1497 10.4858 15.9742 10.2028 14.4563 10.2028C13.0652 10.2028 11.9661 10.4403 11.2383 10.663C11.9495 11.2117 12.3911 12.0765 12.3911 13.0146V14.8344H18.5867C18.8151 14.8344 18.9997 14.6457 18.9997 14.4133V12.3215C18.9997 11.5889 18.5449 10.9468 17.8692 10.7232ZM5.78255 10.2028C7.54127 10.2028 9.14717 10.6517 10.1847 11.0281C11.0104 11.3274 11.5651 12.1257 11.5651 13.0146V16.0975C11.5651 16.3299 11.3805 16.5185 11.1521 16.5185H0.413053C0.184642 16.5185 1.40676e-05 16.3299 1.40676e-05 16.0975V13.0146C1.40676e-05 12.1257 0.554725 11.3274 1.38039 11.0281C2.41794 10.6517 4.02384 10.2028 5.78255 10.2028Z" fill="#D2459E"/>
</svg>
