<svg width="60" height="42" viewBox="0 0 60 42" fill="none" xmlns="http://www.w3.org/2000/svg">
<g opacity="0.8">
<g opacity="0.8">
<circle cx="21" cy="21" r="20" stroke="white" stroke-width="2"/>
<g clip-path="url(#clip0_39_623)">
<path d="M20.7 20.2791C21.9363 20.2791 23.007 19.8356 23.8817 18.9607C24.7565 18.0859 25.2 17.0155 25.2 15.7789C25.2 14.5428 24.7565 13.4723 23.8816 12.5972C23.0067 11.7225 21.9362 11.2791 20.7 11.2791C19.4634 11.2791 18.3931 11.7225 17.5183 12.5973C16.6435 13.4721 16.2 14.5426 16.2 15.7789C16.2 17.0155 16.6435 18.086 17.5184 18.9608C18.3934 19.8355 19.4638 20.2791 20.7 20.2791Z" fill="white"/>
<path d="M29.1612 25.8096C29.1353 25.4327 29.0829 25.0216 29.0058 24.5874C28.928 24.15 28.8277 23.7364 28.7078 23.3585C28.5838 22.9678 28.4153 22.5821 28.2069 22.2124C27.9907 21.8287 27.7367 21.4945 27.4516 21.2196C27.1536 20.932 26.7887 20.7007 26.3667 20.532C25.9462 20.3642 25.4802 20.2792 24.9817 20.2792C24.786 20.2792 24.5966 20.3603 24.231 20.6004C24.006 20.7484 23.7427 20.9196 23.4489 21.1089C23.1977 21.2704 22.8574 21.4216 22.437 21.5586C22.0269 21.6925 21.6105 21.7603 21.1995 21.7603C20.7885 21.7603 20.3723 21.6925 19.9617 21.5586C19.5418 21.4218 19.2015 21.2705 18.9505 21.1091C18.6595 20.9215 18.3961 20.7503 18.1677 20.6002C17.8025 20.3601 17.6131 20.2791 17.4173 20.2791C16.9187 20.2791 16.4528 20.3642 16.0324 20.5322C15.6108 20.7006 15.2457 20.9318 14.9474 21.2198C14.6625 21.4948 14.4084 21.8288 14.1924 22.2124C13.9842 22.5821 13.8156 22.9677 13.6916 23.3586C13.5717 23.7366 13.4715 24.15 13.3937 24.5874C13.3166 25.021 13.2642 25.4323 13.2383 25.8101C13.2128 26.1802 13.2 26.5644 13.2 26.9523C13.2 27.9621 13.5182 28.7795 14.1457 29.3824C14.7655 29.9773 15.5856 30.2791 16.5829 30.2791H25.817C26.8143 30.2791 27.6341 29.9774 28.254 29.3824C28.8817 28.78 29.2 27.9624 29.2 26.9522C29.1998 26.5624 29.1868 26.178 29.1612 25.8096Z" fill="white"/>
</g>
</g>
<circle opacity="0.4" cx="47" cy="22" r="13" fill="#19E1F2"/>
<circle cx="47" cy="22" r="12" fill="url(#paint0_linear_39_623)"/>
<g opacity="0.8">
<path d="M46.5166 20L45.7955 20.7049L46.7715 21.6885L47.4059 21.9563H42V23.0492H47.395L46.7498 23.3388L45.7901 24.3006L46.5221 25L49 22.5027L46.5166 20Z" fill="#1A1626"/>
<path d="M45.0769 18H44V19V20H45.0769V19H49.9231V26H45.0769V25H44V26V27H45.0769H51V18H45.0769Z" fill="#1A1626"/>
</g>
</g>
<defs>
<linearGradient id="paint0_linear_39_623" x1="41.6923" y1="-2.65455" x2="64.9496" y2="2.0498" gradientUnits="userSpaceOnUse">
<stop stop-color="#19E1F2"/>
<stop offset="1" stop-color="#6CE7DD"/>
</linearGradient>
<clipPath id="clip0_39_623">
<rect width="19.2" height="19.3353" fill="white" transform="translate(11.2 11.2791)"/>
</clipPath>
</defs>
</svg>
