<svg width="18" height="17" viewBox="0 0 18 17" fill="none" xmlns="http://www.w3.org/2000/svg">
<path d="M14.6253 13.1555C12.7645 13.1555 11.2502 11.6172 11.2502 9.72693C11.2502 7.83665 12.7645 6.29836 14.6253 6.29836H16.5003V4.77455C16.5003 3.93417 15.8275 3.25074 15.0003 3.25074H14.2503V1.72693C14.2503 0.886553 13.5775 0.203125 12.7502 0.203125H2.25007C1.1378 0.203125 0.218284 1.02903 0.0382811 2.10712C0.0217809 2.1696 3.05176e-05 2.23055 3.05176e-05 2.29836V13.9174C3.05176e-05 15.1776 1.00955 16.2031 2.25007 16.2031H15.0003C15.8275 16.2031 16.5003 15.5197 16.5003 14.6793V13.1555H14.6253ZM1.50005 2.48884C1.50005 2.06903 1.83606 1.72693 2.25007 1.72693H12.7502V3.25074H2.25007C1.83606 3.25074 1.50005 2.90865 1.50005 2.48884Z" fill="#EA3498"/>
<path d="M17.4371 7.44141H14.6246C13.3841 7.44141 12.3746 8.46693 12.3746 9.72712C12.3746 10.9873 13.3841 12.0128 14.6246 12.0128H17.4371C17.7476 12.0128 17.9996 11.7568 17.9996 11.4414V8.01283C17.9996 7.69741 17.7476 7.44141 17.4371 7.44141ZM14.6246 10.489C14.2106 10.489 13.8746 10.1477 13.8746 9.72712C13.8746 9.30655 14.2106 8.96522 14.6246 8.96522C15.0386 8.96522 15.3746 9.30655 15.3746 9.72712C15.3746 10.1477 15.0386 10.489 14.6246 10.489Z" fill="#EA3498"/>
</svg>
