<svg width="14" height="13" viewBox="0 0 14 13" fill="none" xmlns="http://www.w3.org/2000/svg">
<g opacity="0.6">
<path d="M11.3748 9.9223C9.92753 9.9223 8.7498 8.7682 8.7498 7.35002C8.7498 5.93183 9.92753 4.77774 11.3748 4.77774H12.8331V3.6345C12.8331 3.004 12.3098 2.49126 11.6664 2.49126H11.0831V1.34803C11.0831 0.71753 10.5599 0.204788 9.91644 0.204788H1.74991C0.884841 0.204788 0.169686 0.824423 0.0296885 1.63326C0.0168554 1.68014 -6.10352e-05 1.72587 -6.10352e-05 1.77674V10.4939C-6.10352e-05 11.4394 0.785093 12.2088 1.74991 12.2088H11.6664C12.3098 12.2088 12.8331 11.696 12.8331 11.0655V9.9223H11.3748ZM1.16659 1.91964C1.16659 1.60468 1.42792 1.34803 1.74991 1.34803H9.91644V2.49126H1.74991C1.42792 2.49126 1.16659 2.23461 1.16659 1.91964Z" fill="white"/>
<path d="M13.5624 5.6353H11.3749C10.4101 5.6353 9.62494 6.4047 9.62494 7.35015C9.62494 8.29561 10.4101 9.06501 11.3749 9.06501H13.5624C13.8039 9.06501 13.9999 8.87295 13.9999 8.6363V6.06401C13.9999 5.82736 13.8039 5.6353 13.5624 5.6353ZM11.3749 7.92177C11.0529 7.92177 10.7916 7.66569 10.7916 7.35015C10.7916 7.03462 11.0529 6.77854 11.3749 6.77854C11.6969 6.77854 11.9582 7.03462 11.9582 7.35015C11.9582 7.66569 11.6969 7.92177 11.3749 7.92177Z" fill="white"/>
</g>
</svg>
