<svg width="242" height="42" viewBox="0 0 242 42" fill="none" xmlns="http://www.w3.org/2000/svg">
<g opacity="0.8">
<rect x="10.9999" y="2.20312" width="3" height="36" fill="#EA3498"/>
<rect x="231" y="39.2031" width="3" height="36" transform="rotate(180 231 39.2031)" fill="#EA3498"/>
<rect opacity="0.3" x="5.99988" y="2.20312" width="3" height="36" fill="#2AD0E8"/>
<rect opacity="0.3" x="236" y="39.2031" width="3" height="36" transform="rotate(180 236 39.2031)" fill="#2AD0E8"/>
<rect opacity="0.3" x="-0.00012207" y="20.2031" width="1" height="6" transform="rotate(-90 -0.00012207 20.2031)" fill="#2AD0E8"/>
<rect opacity="0.3" x="242" y="21.2031" width="1" height="6" transform="rotate(90 242 21.2031)" fill="#2AD0E8"/>
<rect x="10.9999" y="3.20312" width="3" height="9" transform="rotate(-90 10.9999 3.20312)" fill="#EA3498"/>
<rect x="231" y="38.2031" width="3" height="9" transform="rotate(90 231 38.2031)" fill="#EA3498"/>
<rect x="10.9999" y="41.2031" width="3" height="9" transform="rotate(-90 10.9999 41.2031)" fill="#EA3498"/>
<rect x="231" y="0.203125" width="3" height="9" transform="rotate(90 231 0.203125)" fill="#EA3498"/>
</g>
</svg>
